<svg width="624" height="435" xmlns="http://www.w3.org/2000/svg" xmlns:xlink="http://www.w3.org/1999/xlink" xml:space="preserve"><defs><clipPath id="clip0"><rect x="0" y="0" width="624" height="435"/></clipPath></defs><g clip-path="url(#clip0)"><path d="M0 487.965C0 498.365 3.74398 507.517 11.2319 515.421 18.7199 523.325 28.0798 527.068 39.3117 526.652L545.996 526.652C556.812 526.652 565.964 522.909 573.452 515.421 580.94 507.933 584.892 498.781 585.308 487.965L585.308 409.965C595.708 409.965 604.86 406.013 612.764 398.109 620.668 390.205 624.412 381.053 623.996 370.654L623.996 253.966C623.996 243.15 620.252 233.79 612.764 225.886 605.276 217.983 596.124 214.239 585.308 214.655L585.308 136.655C585.308 125.839 581.356 116.687 573.452 109.199 565.548 101.711 556.396 97.9674 545.996 97.9674L39.3117 97.9674C28.4958 97.9674 19.1359 101.711 11.2319 109.199 3.32798 116.687-0.415997 125.839-1.01751e-13 136.655L-1.01751e-13 487.965ZM77.9995 409.965 77.9995 214.655C77.9995 203.839 81.7435 194.687 89.2314 187.199 96.7194 179.711 106.079 175.967 117.311 175.967L467.997 175.967C478.813 175.967 487.965 179.711 495.453 187.199 502.941 194.687 506.893 203.839 507.309 214.655L507.309 409.965C507.309 420.365 503.357 429.517 495.453 437.421 487.549 445.325 478.397 449.069 467.997 448.653L117.311 448.653C106.495 448.653 97.1354 444.909 89.2314 437.421 81.3275 429.933 77.5835 420.781 77.9995 409.965Z" fill="#FFC000" transform="matrix(1.00001 0 0 1 0 -94.9971)"/></g></svg>