<svg width="624" height="541" xmlns="http://www.w3.org/2000/svg" xmlns:xlink="http://www.w3.org/1999/xlink" xml:space="preserve"><defs><clipPath id="clip0"><rect x="0" y="0" width="624" height="541"/></clipPath></defs><g clip-path="url(#clip0)"><path d="M611.81 479.168C600.156 472.429 585.227 476.407 578.481 488.077 563.083 514.712 534.442 531.254 503.741 531.254 473.031 531.254 444.386 514.709 428.988 488.077 424.627 480.538 416.577 475.893 407.867 475.893 399.156 475.893 391.106 480.541 386.748 488.084 371.363 514.715 342.725 531.254 312.018 531.254 281.317 531.254 252.672 514.705 237.259 488.071 232.897 480.534 224.84 475.893 216.133 475.893 207.423 475.893 199.376 480.538 195.015 488.077 179.614 514.712 150.976 531.254 120.272 531.254 89.5615 531.254 60.9165 514.709 45.5158 488.077 38.7733 476.41 23.8475 472.436 12.1872 479.168 0.523656 485.914-3.46394 500.833 3.2818 512.497 27.3732 554.159 72.1995 580.045 120.272 580.045 156.596 580.045 191.07 565.263 216.143 540.056 241.223 565.263 275.697 580.045 312.018 580.045 348.342 580.045 382.809 565.269 407.873 540.069 432.947 565.266 467.42 580.045 503.744 580.045 551.807 580.045 596.633 554.162 620.725 512.497 627.464 500.833 623.473 485.914 611.81 479.168Z" fill="#FF0000" transform="matrix(1 0 0 1.00001 0 -43.0064)"/><path d="M428.985 375.179C422.243 363.509 407.31 359.524 395.657 366.27 383.993 373.012 380.002 387.935 386.748 399.599 410.836 441.263 455.669 467.147 503.741 467.147 551.807 467.147 596.63 441.263 620.721 399.599 627.464 387.935 623.476 373.012 611.813 366.27 600.149 359.528 585.227 363.515 578.484 375.179 563.087 401.81 534.448 418.356 503.744 418.356 473.028 418.359 444.386 401.814 428.985 375.179Z" fill="#FF0000" transform="matrix(1 0 0 1.00001 0 -43.0064)"/><path d="M120.275 467.147C168.338 467.147 213.164 441.267 237.259 399.602 244.004 387.938 240.017 373.016 228.356 366.273 216.696 359.534 201.77 363.512 195.028 375.175 179.624 401.81 150.979 418.356 120.278 418.356 89.568 418.356 60.923 401.81 45.5223 375.179 38.7766 363.512 23.8573 359.524 12.1937 366.27 0.530161 373.012-3.45743 387.935 3.28505 399.599 27.3732 441.263 72.1995 467.147 120.275 467.147Z" fill="#FF0000" transform="matrix(1 0 0 1.00001 0 -43.0064)"/><path d="M312.561 504.21C348.3 504.21 377.267 475.239 377.267 439.497 377.267 412.397 360.591 389.22 336.952 379.583L336.952 328.908 419.81 328.908C433.285 328.908 444.204 317.99 444.204 304.514 444.204 291.039 433.285 280.12 419.81 280.12L336.952 280.12 336.952 238.595 419.81 238.595C433.285 238.595 444.204 227.677 444.204 214.201 444.204 200.726 433.285 189.808 419.81 189.808L336.952 189.808 336.952 148.276 419.81 148.276C433.285 148.276 444.204 137.357 444.204 123.882 444.204 110.407 433.285 99.4882 419.81 99.4882L336.952 99.4882 336.952 68.3485C336.952 54.8733 326.033 43.9546 312.561 43.9546 299.089 43.9546 288.167 54.8733 288.167 68.3485L288.167 379.583C264.525 389.22 247.849 412.397 247.849 439.497 247.846 475.239 276.822 504.21 312.561 504.21Z" fill="#FF0000" transform="matrix(1 0 0 1.00001 0 -43.0064)"/></g></svg>