<svg width="525" height="526" xmlns="http://www.w3.org/2000/svg" xmlns:xlink="http://www.w3.org/1999/xlink" xml:space="preserve"><defs><clipPath id="clip0"><rect x="0" y="0" width="525" height="526"/></clipPath></defs><g clip-path="url(#clip0)"><path d="M311.995 90.5186C189.676 90.5186 90.517 189.678 90.517 311.997 90.517 434.315 189.676 533.475 311.995 533.475 434.312 533.475 533.472 434.315 533.472 311.997 533.472 189.678 434.312 90.5186 311.995 90.5186ZM51.9991 311.997C51.9991 168.405 168.403 52.0007 311.995 52.0007 455.585 52.0007 571.991 168.405 571.991 311.997 571.991 455.588 455.585 571.993 311.995 571.993 168.403 571.993 51.9991 455.588 51.9991 311.997Z" fill="#548235" fill-rule="evenodd" transform="matrix(1 0 0 1.00001 -49.9878 -50.9994)"/><path d="M311.995 293.795C308.397 293.795 304.876 294.864 301.884 296.863 298.891 298.862 296.559 301.704 295.181 305.03 293.803 308.355 293.442 312.016 294.144 315.546 294.848 319.077 296.58 322.319 299.125 324.865 301.67 327.41 304.915 329.144 308.443 329.846 311.974 330.548 315.635 330.187 318.96 328.809 322.285 327.431 325.127 325.099 327.127 322.106 329.126 319.114 330.195 315.596 330.195 311.995 330.195 307.169 328.276 302.539 324.865 299.125 321.451 295.714 316.823 293.795 311.995 293.795ZM321.095 129.998C402.993 129.998 404.813 194.971 361.68 216.447 353.667 221.199 346.842 227.719 341.733 235.51 336.624 243.301 333.361 252.156 332.197 261.4 340.899 265.011 348.584 270.697 354.582 277.961 421.193 241.563 493.992 255.94 493.992 321.095 493.992 402.993 428.837 404.813 407.543 361.68 402.653 353.67 396.026 346.86 388.15 341.759 380.275 336.655 371.352 333.387 362.044 332.197 358.389 340.875 352.71 348.55 345.482 354.582 381.882 421.739 367.322 493.992 302.167 493.992 220.996 493.992 218.994 428.837 262.128 407.361 270.011 402.546 276.739 396.057 281.835 388.35 286.931 380.644 290.27 371.913 291.611 362.772 282.691 359.283 274.844 353.508 268.862 346.028 201.705 382.064 129.998 367.868 129.998 302.895 129.998 220.997 194.425 218.995 215.9 262.128 220.722 270.104 227.288 276.885 235.105 281.96 242.922 287.033 251.788 290.272 261.036 291.429 264.54 282.67 270.32 275.003 277.779 269.226 241.562 202.797 255.94 129.998 320.731 129.998L321.095 129.998Z" fill="#548235" transform="matrix(1 0 0 1.00001 -49.9878 -50.9994)"/></g></svg>