<svg width="483" height="98" xmlns="http://www.w3.org/2000/svg" xmlns:xlink="http://www.w3.org/1999/xlink" xml:space="preserve"><defs><clipPath id="clip0"><rect x="0" y="0" width="483" height="98"/></clipPath></defs><g clip-path="url(#clip0)"><path d="M299.332 239.071C299.332 239.071 397.062 237.548 426.277 237.095 436.929 237.045 450.241 238.276 456.902 240.553 463.562 242.829 471.72 245.986 471.72 245.986 471.72 245.986 477.748 247.823 477.154 249.444 476.897 250.111 469.231 248.226 464.805 247.468 460.342 246.703 445.99 242.815 443.565 242.528 441.14 242.242 431.678 241.245 415.904 242.034 402.082 242.726 360.406 242.912 344.282 243.022 328.836 243.128 307.639 242.919 305.754 243.022 303.869 243.126 302.898 243.46 304.272 245.492 305.646 247.524 307.102 250.47 309.211 252.407 311.321 254.345 311.569 255.551 311.187 255.865 310.805 256.179 308.364 255.355 305.754 252.901 303.143 250.447 299.963 246.375 296.863 244.504 293.762 242.633 294.783 240.56 295.381 240.059 295.978 239.557 297.403 239.204 299.332 239.071Z" fill="#D12027" transform="matrix(1 0 0 1.00011 -141.005 -163.893)"/><path d="M496.912 246.974C496.912 246.974 514.325 207.049 554.153 223.744 559.223 225.938 578.955 238.752 593.725 246.48 608.496 254.208 611.507 255.371 611.507 255.371 611.507 255.371 617.1 259.52 603.604 255.865 590.108 252.21 571.004 237.846 563.101 233.637 555.197 229.429 532.044 213.824 511.236 235.613 506.373 240.046 499.96 248.38 498.887 251.419 498.208 253.344 496.302 258.537 495.43 256.853 494.451 254.964 495.582 250.421 496.912 246.974Z" fill="#D12027" transform="matrix(1 0 0 1.00011 -141.005 -163.893)"/><path d="M181.773 250.926C181.773 250.926 196.856 218.077 230.18 231.168 234.422 232.888 250.916 242.89 263.274 248.95 275.632 255.009 277.105 255.865 277.105 255.865 277.105 255.865 280.987 259.225 269.696 256.359 258.404 253.493 244.202 242.865 237.589 239.565 230.976 236.264 210.721 223.937 193.628 241.54 189.559 245.017 185.634 250.518 184.736 252.901 184.168 254.41 183.359 257.347 181.773 257.347 180.875 257.347 180.739 253.406 181.773 250.926Z" fill="#D12027" transform="matrix(1 0 0 1.00011 -141.005 -163.893)"/><path d="M299.332 239.071C299.332 239.071 397.062 237.548 426.277 237.095 436.929 237.045 450.241 238.276 456.902 240.553 463.562 242.829 471.72 245.986 471.72 245.986 471.72 245.986 477.748 247.823 477.154 249.444 476.897 250.111 469.231 248.226 464.805 247.468 460.342 246.703 445.99 242.815 443.565 242.528 441.14 242.242 431.678 241.245 415.904 242.034 402.082 242.726 360.406 242.912 344.282 243.022 328.836 243.128 307.639 242.919 305.754 243.022 303.869 243.126 302.898 243.46 304.272 245.492 305.646 247.524 307.102 250.47 309.211 252.407 311.321 254.345 311.569 255.551 311.187 255.865 310.805 256.179 308.364 255.355 305.754 252.901 303.143 250.447 299.963 246.375 296.863 244.504 293.762 242.633 294.783 240.56 295.381 240.059 295.978 239.557 297.403 239.204 299.332 239.071Z" fill="#D12027" transform="matrix(1 0 0 1.00011 -141.005 -163.893)"/><path d="M143.245 245.492C143.245 245.492 154.123 212.296 278.093 216.843 292.662 217.241 322.114 220.052 335.884 206.964 349.655 193.876 356.037 191.611 363.546 191.652 371.055 191.693 426.202 199.073 443.565 200.543 460.928 202.013 467.882 206.364 526.054 198.073 524.467 194.754 521.288 191.51 517.657 185.724 514.026 179.939 509.982 175.377 507.778 172.388 507.762 170.393 508.843 166.698 511.236 166.954 513.628 167.211 594.603 169.687 621.88 166.46 625.193 167.211 624.03 168.561 622.374 168.93 620.719 169.299 557.197 174.886 516.669 171.894 512.734 171.785 514.347 173.144 516.175 175.845 518.004 178.546 524.951 189.649 526.548 191.158 528.146 192.666 536.963 200.936 528.03 202.519 519.097 204.101 503.598 208.247 482.587 208.446 461.576 208.645 416.701 201.697 404.543 200.543 392.386 199.388 370.461 196.591 370.461 196.591 370.461 196.591 358.981 195.013 352.185 200.049 345.389 205.085 339.917 210.201 332.921 214.867 325.925 219.534 315.329 221.863 285.502 221.289 255.675 220.714 239.178 222.299 230.18 222.77 221.182 223.242 183.466 223.688 153.618 238.577 150.566 240.039 147.196 244.504 147.196 244.504 147.196 244.504 142.458 249.649 143.245 245.492Z" fill="#D12027" transform="matrix(1 0 0 1.00011 -141.005 -163.893)"/></g></svg>